<?xml version="1.0" encoding="UTF-8"?> <svg xmlns="http://www.w3.org/2000/svg" width="120.919" height="134.858" viewBox="0 0 120.919 134.858"><g id="グループ_283" data-name="グループ 283" transform="translate(16407.582 3887.199)"><rect id="長方形_125" data-name="長方形 125" width="97" height="47" transform="translate(-16395 -3848)" fill="#fff"></rect><g id="image_70-removebg-preview" transform="translate(-16414.881 -3894.031)"><g id="グループ_282" data-name="グループ 282"><path id="パス_153" data-name="パス 153" d="M79.05,120.98a5.773,5.773,0,0,1-.71-.31,1.761,1.761,0,0,0-.78-.18q-10.16.05-19.8.02a2.582,2.582,0,0,0-.84.14,1.946,1.946,0,0,1-.72.12" fill="none" stroke="#9d413c" stroke-width="2"></path><path id="パス_154" data-name="パス 154" d="M106.67,27.05a4.04,4.04,0,0,0-4.04-4.04H32.85a4.04,4.04,0,0,0-4.04,4.04V41.59a4.04,4.04,0,0,0,4.04,4.04h69.78a4.04,4.04,0,0,0,4.04-4.04V27.05" fill="none" stroke="#9d413c" stroke-width="2"></path></g><path id="パス_156" data-name="パス 156" d="M33.23,6.92q45.11-.19,90.27.03c2.6.02,4.66,1.31,4.66,3.96q.09,52.09.04,105.1c-.01,3.04-2.15,4.65-5.2,4.65q-21.13.02-42.75.11a5.012,5.012,0,0,0-1.2.21,5.773,5.773,0,0,1-.71-.31,1.761,1.761,0,0,0-.78-.18q-10.16.05-19.8.02a2.582,2.582,0,0,0-.84.14,1.946,1.946,0,0,1-.72.12q-21.71-.08-43.45-.09c-5.88,0-5.35-3.47-5.36-8.28Q7.33,69.57,7.3,26.75c-.007-4.773.1-12.834,0-17.54A2.473,2.473,0,0,1,9.418,6.92Zm73.44,20.13a4.04,4.04,0,0,0-4.04-4.04H32.85a4.04,4.04,0,0,0-4.04,4.04V41.59a4.04,4.04,0,0,0,4.04,4.04h69.78a4.04,4.04,0,0,0,4.04-4.04ZM36.65,77.14c4.18-.15,7.93.05,9.42-4.63,1.21-3.8-.99-7.24-4.84-8.16a19.542,19.542,0,0,0-7.54-.33,1.69,1.69,0,0,0-1.44,1.64q-.11,7.67-.05,14.93a2.091,2.091,0,0,0,1.57,2.02.527.527,0,0,0,.32-.02,1.915,1.915,0,0,0,1.29-1.68,25.291,25.291,0,0,1,.38-3,.935.935,0,0,1,.89-.77Zm33.19-3.89a9.34,9.34,0,1,0-9.34,9.34,9.34,9.34,0,0,0,9.34-9.34Zm9.35-5.53a7.941,7.941,0,0,1,5.49.74,1.66,1.66,0,0,0,2.35-.94,1.576,1.576,0,0,0-.73-1.98q-4.03-2.67-7.67-1.31c-4.79,1.8-5.69,8.31-.35,9.97q2.26.71,4.6,1.44a1.732,1.732,0,0,1,1.36,2,.773.773,0,0,1-.55.7,7.593,7.593,0,0,1-6.81-.72,1.675,1.675,0,0,0-2.65.82,1.25,1.25,0,0,0,.31,1.28q4.36,4.29,9.56,2.38a5.316,5.316,0,0,0,3.65-4.53c.67-4.53-4.68-5.69-7.81-6.45a2.583,2.583,0,0,1-1.41-.85,1.634,1.634,0,0,1,0-2.11A.987.987,0,0,1,79.19,67.72Zm17.98.91q-.27,6.12,0,12.27a1.975,1.975,0,0,0,1.51,1.84.653.653,0,0,0,.3-.01,1.79,1.79,0,0,0,1.25-1.63q.24-5.21.05-12.27a1.06,1.06,0,0,1,.96-1.08q1.41-.13,3.78-.42a1.287,1.287,0,0,0,1.16-1.12,1.724,1.724,0,0,0-.274-1.4,1.746,1.746,0,0,0-1.236-.722c-2.39-.25-10.62-1.11-12.77.52a1.54,1.54,0,0,0,.54,2.71,13.776,13.776,0,0,0,3.86.42.85.85,0,0,1,.87.89Z" fill="#eb3329"></path><rect id="長方形_124" data-name="長方形 124" width="77.86" height="22.62" rx="4.04" transform="translate(28.81 23.01)" fill="#4f4e4e"></rect><path id="パス_157" data-name="パス 157" d="M35.53,68.86a1.37,1.37,0,0,1,1.38-1.36l2.57.01a3.251,3.251,0,0,1,3.46,2.98v.26a3.253,3.253,0,0,1-3.5,2.94l-2.57-.01a1.37,1.37,0,0,1-1.36-1.38Z" fill="#eb3329"></path><ellipse id="楕円形_24" data-name="楕円形 24" cx="5.9" cy="5.74" rx="5.9" ry="5.74" transform="translate(54.855 67.238) rotate(2.3)" fill="#eb3329"></ellipse><path id="パス_158" data-name="パス 158" d="M79.05,120.98l-.04,15.84q-.01,4.86-4.86,4.85-6.32,0-12.88.02-4.55,0-4.63-4.44-.14-8.07.05-15.63a.864.864,0,0,0-.25-.62q-.11-.1-.24-.23a1.946,1.946,0,0,0,.72-.12,2.582,2.582,0,0,1,.84-.14q9.64.03,19.8-.02a1.761,1.761,0,0,1,.78.18A5.773,5.773,0,0,0,79.05,120.98Z" fill="#4f4e4e"></path></g></g></svg> 